<svg width="512" height="512" viewBox="0 0 512 512" fill="none" xmlns="http://www.w3.org/2000/svg">
<path d="M219.298 437.837C219.238 437.837 219.187 437.837 219.127 437.837C215.347 437.743 212.361 434.611 212.446 430.831C212.719 419.396 221.005 412.279 227.652 406.571C234.223 400.93 238.217 397.116 238.362 391.817C238.524 385.843 233.609 380.774 227.925 374.903C221.184 367.94 213.538 360.047 213.982 348.638C214.417 337.237 222.763 330.479 229.47 325.052C235.802 319.923 239.701 316.527 239.889 311.595C240.102 306.167 235.443 301.389 230.05 295.851C223.181 288.794 215.398 280.806 215.501 268.698C215.603 256.495 223.65 248.806 230.75 242.014C236.476 236.544 241.425 231.817 241.425 225.843C241.425 219.58 236.117 214.639 229.982 208.922C222.703 202.146 214.451 194.475 214.588 182.656C214.724 170.769 223.181 163.388 230.639 156.885C237.525 150.878 241.715 146.859 241.732 141.764C241.749 136.747 237.653 132.77 230.912 126.814C230.11 126.106 229.308 125.397 228.506 124.681C225.698 122.146 225.476 117.82 228.002 115.012C230.537 112.205 234.863 111.983 237.67 114.509C238.43 115.2 239.198 115.874 239.966 116.548C247.228 122.957 255.462 130.219 255.42 141.815C255.377 153.472 247.014 160.768 239.642 167.202C232.61 173.338 228.343 177.442 228.275 182.827C228.207 188.587 233.344 193.365 239.3 198.903C246.716 205.807 255.121 213.623 255.113 225.852C255.113 237.687 247.194 245.248 240.205 251.921C234.317 257.545 229.239 262.4 229.18 268.817C229.129 275.285 234.095 280.388 239.855 286.302C246.485 293.111 253.995 300.826 253.559 312.115C253.124 323.516 244.779 330.266 238.08 335.693C231.74 340.821 227.849 344.218 227.661 349.158C227.447 354.714 232.226 359.654 237.764 365.363C244.608 372.429 252.365 380.442 252.049 392.166C251.733 403.917 243.328 411.136 236.578 416.939C230.161 422.451 226.261 426.163 226.142 431.147C226.048 434.876 223.01 437.837 219.298 437.837Z" fill="#E5354E" stroke="black" stroke-width="10" stroke-miterlimit="10" stroke-linecap="round" stroke-linejoin="round"/>
<path d="M349.227 275.712C349.21 275.712 349.193 275.712 349.167 275.712C345.387 275.678 342.349 272.589 342.383 268.809C342.477 256.606 350.532 248.917 357.632 242.125C363.358 236.655 368.299 231.927 368.307 225.954C368.307 219.691 363.008 214.75 356.855 209.033C349.577 202.257 341.325 194.586 341.47 182.767C341.606 170.88 350.063 163.499 357.521 156.996C364.407 150.989 368.597 146.97 368.614 141.875C368.631 136.849 364.535 132.873 357.786 126.925C356.983 126.217 356.181 125.508 355.388 124.791C352.58 122.257 352.35 117.931 354.884 115.123C357.41 112.316 361.745 112.094 364.553 114.62C365.312 115.302 366.08 115.977 366.848 116.659C374.118 123.068 382.353 130.33 382.31 141.926C382.268 153.583 373.905 160.879 366.532 167.313C359.501 173.449 355.234 177.562 355.166 182.938C355.098 188.698 360.243 193.476 366.191 199.014C373.606 205.909 382.012 213.734 382.003 225.963C381.995 237.79 374.076 245.359 367.095 252.032C361.207 257.655 356.13 262.511 356.079 268.928C356.036 272.683 352.981 275.712 349.227 275.712Z" fill="white" stroke="black" stroke-width="10" stroke-miterlimit="10" stroke-linecap="round" stroke-linejoin="round"/>
<path d="M92.1173 355.738C92.032 355.738 91.9381 355.738 91.8528 355.729C88.0725 355.584 85.1285 352.41 85.2736 348.629C85.7088 337.229 94.0544 330.47 100.762 325.043C107.093 319.915 110.985 316.518 111.181 311.586C111.386 306.159 106.735 301.38 101.342 295.842C94.4725 288.794 86.6901 280.798 86.7925 268.698C86.8949 256.486 94.9419 248.798 102.05 242.014C107.776 236.544 112.717 231.825 112.725 225.843C112.725 219.58 107.426 214.647 101.274 208.922C93.9947 202.155 85.7429 194.475 85.8795 182.656C86.0245 170.769 94.4725 163.388 101.939 156.885C108.826 150.878 113.015 146.859 113.024 141.773C113.041 136.747 108.945 132.77 102.204 126.822C101.402 126.114 100.599 125.406 99.8059 124.689C96.9984 122.155 96.7765 117.828 99.3024 115.021C101.837 112.213 106.163 111.991 108.971 114.517C109.73 115.2 110.498 115.883 111.275 116.557C118.537 122.965 126.771 130.227 126.729 141.824C126.686 153.481 118.323 160.777 110.942 167.211C103.91 173.346 99.6437 177.451 99.5755 182.835C99.5072 188.595 104.644 193.374 110.601 198.912C118.016 205.815 126.421 213.632 126.413 225.86C126.404 237.696 118.485 245.257 111.505 251.93C105.617 257.553 100.54 262.409 100.48 268.826C100.429 275.294 105.395 280.405 111.147 286.31C117.777 293.12 125.286 300.834 124.86 312.132C124.425 323.524 116.079 330.283 109.372 335.71C103.031 340.838 99.1403 344.235 98.9525 349.175C98.816 352.845 95.7781 355.738 92.1173 355.738Z" fill="#0A89FF" stroke="black" stroke-width="10" stroke-miterlimit="10"/>
<path d="M170.974 355.106C170.974 364.732 163.166 372.54 153.54 372.54C143.915 372.54 136.107 364.732 136.107 355.106C136.107 345.481 143.915 337.673 153.54 337.673C163.166 337.673 170.974 345.481 170.974 355.106Z" fill="#E5354E" stroke="black" stroke-width="10" stroke-miterlimit="10" stroke-linecap="round" stroke-linejoin="round"/>
<path d="M320.845 319.334C320.845 328.96 313.037 336.768 303.411 336.768C293.786 336.768 285.978 328.96 285.978 319.334C285.978 309.709 293.786 301.901 303.411 301.901C313.037 301.901 320.845 309.7 320.845 319.334Z" fill="#0A89FF" stroke="black" stroke-width="10" stroke-miterlimit="10"/>
<path d="M191.522 220.177C191.522 229.803 183.714 237.611 174.089 237.611C164.463 237.611 156.655 229.811 156.655 220.177C156.655 210.551 164.463 202.743 174.089 202.743C183.714 202.735 191.522 210.543 191.522 220.177ZM160.649 84.2496C160.649 88.0384 157.585 91.1019 153.796 91.1019C150.016 91.1019 146.953 88.0384 146.953 84.2496C146.953 80.4608 150.016 77.3973 153.796 77.3973C157.585 77.3973 160.649 80.4693 160.649 84.2496ZM198.537 299.281C198.537 303.061 195.473 306.125 191.693 306.125C187.904 306.125 184.841 303.061 184.841 299.281C184.841 295.492 187.904 292.429 191.693 292.429C195.465 292.437 198.537 295.501 198.537 299.281ZM400.009 304.026C400.009 307.814 396.945 310.878 393.165 310.878C389.376 310.878 386.313 307.814 386.313 304.026C386.313 300.245 389.376 297.173 393.165 297.173C396.945 297.173 400.009 300.237 400.009 304.026Z" fill="white" stroke="black" stroke-width="10" stroke-miterlimit="10" stroke-linecap="round" stroke-linejoin="round"/>
<path d="M303.334 244.821C303.334 248.61 300.271 251.674 296.482 251.674C292.693 251.674 289.63 248.61 289.63 244.821C289.63 241.033 292.693 237.969 296.482 237.969C300.271 237.969 303.334 241.033 303.334 244.821ZM184.977 407.543C184.977 411.332 181.914 414.396 178.133 414.396C174.345 414.396 171.281 411.332 171.281 407.543C171.281 403.763 174.345 400.7 178.133 400.7C181.914 400.691 184.977 403.763 184.977 407.543ZM70.016 234.701C70.016 238.49 66.9525 241.553 63.1637 241.553C59.3835 241.553 56.32 238.49 56.32 234.701C56.32 230.921 59.3835 227.857 63.1637 227.857C66.944 227.849 70.016 230.912 70.016 234.701Z" fill="#E5354E" stroke="black" stroke-width="10" stroke-miterlimit="10" stroke-linecap="round" stroke-linejoin="round"/>
<path d="M427.537 124.621C427.537 128.41 424.474 131.473 420.685 131.473C416.896 131.473 413.833 128.41 413.833 124.621C413.833 120.841 416.896 117.777 420.685 117.777C424.474 117.769 427.537 120.832 427.537 124.621ZM295.654 392.9C295.654 396.689 292.591 399.753 288.802 399.753C285.022 399.753 281.958 396.689 281.958 392.9C281.958 389.111 285.022 386.048 288.802 386.048C292.591 386.048 295.654 389.12 295.654 392.9ZM191.454 138.317C191.454 142.097 188.39 145.161 184.602 145.161C180.821 145.161 177.758 142.097 177.758 138.317C177.758 134.528 180.821 131.465 184.602 131.465C188.39 131.465 191.454 134.537 191.454 138.317Z" fill="#0A89FF" stroke="black" stroke-width="10" stroke-miterlimit="10"/>
<path d="M364.791 400.768C365.295 401.485 366.003 402.005 366.797 402.278C367.59 402.551 368.461 402.577 369.306 402.321C370.987 401.809 372.147 400.273 372.173 398.515L372.429 383.778L386.526 379.469C388.207 378.957 389.367 377.421 389.393 375.663C389.427 373.905 388.318 372.326 386.654 371.755L372.719 366.95L372.983 352.213C373.018 350.455 371.908 348.877 370.244 348.305C368.58 347.733 366.737 348.297 365.687 349.696L356.813 361.463L342.878 356.659C341.214 356.087 339.371 356.651 338.321 358.05C337.263 359.45 337.229 361.378 338.236 362.82L346.684 374.895L337.809 386.662C336.751 388.07 336.717 389.99 337.724 391.433C338.731 392.875 340.548 393.498 342.229 392.986L356.326 388.676L364.791 400.768Z" fill="#E5354E" stroke="black" stroke-width="10" stroke-miterlimit="10" stroke-linecap="round" stroke-linejoin="round"/>
<path d="M447.59 228.062C448.435 228.292 449.314 228.241 450.091 227.951C450.876 227.652 451.567 227.115 452.053 226.381C453.018 224.913 452.932 222.993 451.831 221.619L442.633 210.108L450.739 197.794C451.703 196.326 451.618 194.398 450.517 193.033C449.417 191.659 447.565 191.147 445.918 191.77L432.128 196.966L422.929 185.455C421.828 184.081 419.977 183.569 418.33 184.192C416.683 184.815 415.625 186.419 415.71 188.177L416.384 202.897L402.594 208.094C400.947 208.717 399.889 210.321 399.974 212.079C400.051 213.837 401.254 215.339 402.953 215.808L417.16 219.716L417.835 234.436C417.92 236.194 419.123 237.696 420.813 238.165C422.502 238.635 424.311 237.952 425.276 236.484L433.382 224.179L447.59 228.062Z" fill="#0A89FF" stroke="black" stroke-width="10" stroke-miterlimit="10"/>
<path d="M287.667 201.694C288.043 202.487 288.657 203.11 289.391 203.511C290.125 203.913 290.987 204.083 291.857 203.964C293.598 203.733 294.997 202.411 295.313 200.678L297.993 186.189L312.61 184.26C314.351 184.03 315.75 182.699 316.066 180.975C316.382 179.251 315.554 177.51 314.01 176.674L301.056 169.651L303.735 155.162C304.051 153.429 303.223 151.697 301.679 150.861C300.134 150.025 298.223 150.272 296.951 151.484L286.268 161.63L273.314 154.607C271.77 153.771 269.858 154.027 268.587 155.23C267.315 156.442 266.957 158.336 267.716 159.923L274.065 173.227L263.381 183.373C262.11 184.585 261.76 186.479 262.519 188.066C263.279 189.653 264.969 190.575 266.709 190.336L281.318 188.407L287.667 201.694Z" fill="white" stroke="black" stroke-width="10" stroke-miterlimit="10" stroke-linecap="round" stroke-linejoin="round"/>
</svg>
