<?xml version="1.0" encoding="iso-8859-1"?>
<!-- Uploaded to: SVG Repo, www.svgrepo.com, Generator: SVG Repo Mixer Tools -->
<svg height="800px" width="800px" version="1.1" id="Layer_1" xmlns="http://www.w3.org/2000/svg" xmlns:xlink="http://www.w3.org/1999/xlink" 
	 viewBox="0 0 512 512" xml:space="preserve">
<path style="fill:#F09EA0;" d="M299.455,218.545c-2.556,0-5.098-1.065-6.909-3.144c-3.321-3.814-2.921-9.597,0.892-12.918
	c21.691-18.886,41.842-39.798,59.892-62.153c16.313-20.204,31.141-41.875,44.072-64.412c2.517-4.385,8.114-5.903,12.499-3.385
	c4.386,2.517,5.902,8.112,3.385,12.499c-13.411,23.374-28.788,45.85-45.707,66.803c-18.72,23.185-39.62,44.873-62.115,64.459
	C303.729,217.804,301.587,218.545,299.455,218.545z"/>
<path style="fill:#88E2E2;" d="M279.59,200.417c-1.984,0-3.981-0.641-5.66-1.964c-3.973-3.129-4.655-8.886-1.526-12.859
	c9.995-12.687,22.646-33.804,26.161-62.355c4.661-37.867-9.36-67.444-18.134-81.704c-2.65-4.307-1.306-9.946,3.001-12.597
	c4.308-2.65,9.946-1.306,12.597,3.001c10.029,16.302,26.055,50.13,20.713,93.538c-4.031,32.748-18.513,56.93-29.951,71.449
	C284.982,199.219,282.299,200.417,279.59,200.417z"/>
<path style="fill:#F9DE8F;" d="M470.373,239.338c-2.138,0-4.285-0.745-6.022-2.262c-9.464-8.271-35.51-27.442-72.774-26.658
	c-32.275,0.665-55.208,15.739-66.006,24.664c-3.898,3.223-9.669,2.674-12.891-1.223c-3.222-3.897-2.674-9.669,1.223-12.891
	c12.633-10.443,39.474-28.079,77.296-28.858c43.672-0.886,74.133,21.505,85.202,31.18c3.808,3.328,4.197,9.112,0.868,12.92
	C475.46,238.277,472.922,239.338,470.373,239.338z"/>
<path style="fill:#D9D9DB;" d="M17.481,512c-0.209,0-0.418-0.007-0.629-0.022c-5.046-0.343-8.857-4.71-8.515-9.756
	c1.836-27.046,10.204-46.229,24.873-57.014c11.859-8.722,23.375-9.021,33.535-9.284c9.206-0.239,16.476-0.429,23.753-6.6
	c5.012-4.251,6.655-8.397,9.377-15.267c3.086-7.789,6.928-17.484,17.044-30.239c7.225-9.111,15.719-17.314,25.248-24.379
	c4.063-3.012,9.796-2.161,12.809,1.901c3.012,4.062,2.161,9.796-1.901,12.809c-8.241,6.11-15.578,13.192-21.808,21.048
	c-8.436,10.637-11.587,18.591-14.368,25.607c-3.112,7.854-6.052,15.273-14.556,22.485c-12.195,10.344-24.375,10.66-35.122,10.94
	c-8.901,0.232-15.931,0.414-23.162,5.732c-10.126,7.446-15.997,22.081-17.451,43.501C26.279,508.297,22.255,512,17.481,512z"/>
<path style="fill:#F9DE8F;" d="M470.726,0.868l9.477,19.202c0.208,0.42,0.608,0.711,1.071,0.778l21.191,3.079
	c1.167,0.17,1.632,1.603,0.789,2.427L487.92,41.301c-0.336,0.327-0.488,0.797-0.409,1.259l3.62,21.106
	c0.199,1.162-1.021,2.049-2.064,1.499L470.113,55.2c-0.414-0.217-0.91-0.217-1.323,0l-18.953,9.964
	c-1.044,0.548-2.263-0.337-2.064-1.499l3.62-21.106c0.079-0.461-0.073-0.933-0.409-1.259l-15.334-14.947
	c-0.845-0.823-0.378-2.257,0.789-2.427l21.191-3.079c0.464-0.067,0.864-0.359,1.071-0.778l9.477-19.202
	C468.696-0.189,470.203-0.189,470.726,0.868z"/>
<circle style="fill:#88E2E2;" cx="361.549" cy="23.318" r="23.318"/>
<circle style="fill:#F09EA0;" cx="447.056" cy="142.264" r="23.318"/>
<path style="fill:#F9DE8F;" d="M159.066,378.316l-23.873-23.873c-3.105-3.105-3.105-8.138,0-11.241L255.69,222.704
	c3.105-3.105,8.138-3.105,11.241,0l23.873,23.873c3.105,3.105,3.105,8.138,0,11.241L170.307,378.316
	C167.202,381.421,162.17,381.421,159.066,378.316z"/>
<g>
	<polygon style="fill:#F09EA0;" points="250.07,298.479 204.595,273.723 230.236,248.082 275.711,272.838 	"/>
	<polygon style="fill:#F09EA0;" points="198.787,349.762 153.312,325.005 178.954,299.364 224.428,324.12 	"/>
</g>
</svg>